<?xml version="1.0" encoding="UTF-8"?>
<svg width="257px" height="257px" viewBox="0 0 257 257" version="1.1" xmlns="http://www.w3.org/2000/svg" xmlns:xlink="http://www.w3.org/1999/xlink">
    <!-- Generator: Sketch 43.2 (39069) - http://www.bohemiancoding.com/sketch -->
    <title>icon-policy</title>
    <desc>Created with Sketch.</desc>
    <defs></defs>
    <g id="Page-1" stroke="none" stroke-width="1" fill="none" fill-rule="evenodd">
        <g id="icon-policy" transform="translate(2.000000, 2.000000)">
            <circle id="Oval-3" stroke="#EF4136" stroke-width="3" cx="126.521132" cy="126.521132" r="126.521132"></circle>
            <g id="iconfinder_ic_security_48px_352092" transform="translate(42.247836, 35.440593)">
                <path d="M53.1948052,4.43290042 L13.2987013,22.1645022 L13.2987013,48.7619049 C13.2987013,73.3866666 30.2988744,96.3490909 53.1948052,101.95671 C76.090736,96.3490909 93.0909091,73.3866666 93.0909091,48.7619049 L93.0909091,22.1645022 L53.1948052,4.43290042 Z M53.1948052,53.1504763 L84.2251081,53.1504763 C81.8756711,71.414026 69.7073594,87.6827705 53.1948052,92.7584416 L53.1948052,53.1948052 L22.1645022,53.1948052 L22.1645022,27.9272727 L53.1948052,14.1409524 L53.1948052,53.1504763 Z" id="Shape" fill="#EF4136" fill-rule="nonzero"></path>
                <polygon id="Shape" points="0 0 106.38961 0 106.38961 106.38961 0 106.38961"></polygon>
            </g>
            <g id="iconfinder_ic_lock_48px_352523" transform="translate(122.040044, 105.258775)">
                <polygon id="Shape" points="0 0 106.38961 0 106.38961 106.38961 0 106.38961"></polygon>
                <path d="M79.7922078,35.4632036 L75.3593075,35.4632036 L75.3593075,26.5974026 C75.3593075,14.3625974 65.4296104,4.43290042 53.1948052,4.43290042 C40.96,4.43290042 31.030303,14.3625974 31.030303,26.5974026 L31.030303,35.4632036 L26.5974026,35.4632036 C21.6990476,35.4632036 17.7316017,39.4306494 17.7316017,44.3290042 L17.7316017,88.6580088 C17.7316017,93.5563636 21.6990476,97.5238094 26.5974026,97.5238094 L79.7922078,97.5238094 C84.6905627,97.5238094 88.6580088,93.5563636 88.6580088,88.6580088 L88.6580088,44.3290042 C88.6580088,39.4306494 84.6905627,35.4632036 79.7922078,35.4632036 Z M53.1948052,75.3593075 C48.2964503,75.3593075 44.3290042,71.3918614 44.3290042,66.4935065 C44.3290042,61.5951516 48.2964503,57.6277055 53.1948052,57.6277055 C58.0931601,57.6277055 62.0606062,61.5951516 62.0606062,66.4935065 C62.0606062,71.3918614 58.0931601,75.3593075 53.1948052,75.3593075 Z M66.9367964,35.4632036 L39.452814,35.4632036 L39.452814,26.5974026 C39.452814,19.0171429 45.6145455,12.8554113 53.1948052,12.8554113 C60.7750649,12.8554113 66.9367964,19.0171429 66.9367964,26.5974026 L66.9367964,35.4632036 L66.9367964,35.4632036 Z" id="Shape" fill="#EF4136" fill-rule="nonzero"></path>
            </g>
            <path d="M80.4816035,200.012021 L186.871214,57.0509817" id="Line" stroke="#EF4136" stroke-width="2" stroke-linecap="square"></path>
        </g>
    </g>
</svg>